<svg version="1.1" xmlns="http://www.w3.org/2000/svg" xmlns:xlink="http://www.w3.org/1999/xlink" width="867" height="771"><defs/><g><g transform="translate(-78,-46) scale(1,1)"><path fill="none" stroke="#000000" d="M 376 56 L 935 56 L 935 807 L 376 807 L 376 56" stroke-miterlimit="10"/></g><g transform="translate(-78,-46) scale(1,1)"><path fill="#ffffff" stroke="none" d="M 376 56 L 376 78 L 392 78 L 403 67 L 403 56 L 376 56"/></g><g transform="translate(-78,-46) scale(1,1)"><path fill="none" stroke="#000000" d="M 376 56 L 376 78 L 392 78 L 403 67 L 403 56 L 376 56 L 376 56" stroke-miterlimit="10"/></g><g transform="translate(-78,-46) scale(1,1)"><g><path fill="none" stroke="none"/><text fill="#000000" stroke="none" font-family="Arial" font-size="13px" font-style="normal" font-weight="normal" text-decoration="none" x="387" y="73.5"></text></g></g><g transform="translate(-78,-46) scale(1,1)"><g><path fill="none" stroke="none"/><text fill="#000000" stroke="none" font-family="Arial" font-size="13px" font-style="normal" font-weight="bold" text-decoration="none" x="381" y="73.5"></text></g></g><g transform="translate(-78,-46) scale(1,1)"><path fill="#ffffff" stroke="none" d="M 113.82 331.2 C 113.82 321.14841664 121.735604736 313 131.5 313 C 141.264395264 313 149.18 321.14841664 149.18 331.2 C 149.18 341.25158336 141.264395264 349.4 131.5 349.4 C 121.735604736 349.4 113.82 341.25158336 113.82 331.2 Z"/></g><g transform="translate(-78,-46) scale(1,1)"><path fill="none" stroke="#000000" d="M 113.82 331.2 C 113.82 321.14841664 121.735604736 313 131.5 313 C 141.264395264 313 149.18 321.14841664 149.18 331.2 C 149.18 341.25158336 141.264395264 349.4 131.5 349.4 C 121.735604736 349.4 113.82 341.25158336 113.82 331.2 Z" stroke-miterlimit="10"/></g><g transform="translate(-78,-46) scale(1,1)"><path fill="none" stroke="#000000" d="M 131.5 349.4 L 131.5 384.6" stroke-miterlimit="10"/></g><g transform="translate(-78,-46) scale(1,1)"><path fill="none" stroke="#000000" d="M 112.78 362.6 L 150.22 362.6" stroke-miterlimit="10"/></g><g transform="translate(-78,-46) scale(1,1)"><path fill="none" stroke="#000000" d="M 131.5 384.6 L 105.5 421" stroke-miterlimit="10"/></g><g transform="translate(-78,-46) scale(1,1)"><path fill="none" stroke="#000000" d="M 131.5 384.6 L 157.5 421" stroke-miterlimit="10"/></g><g transform="translate(-78,-46) scale(1,1)"><g><path fill="none" stroke="none"/><text fill="#000000" stroke="none" font-family="Arial" font-size="13px" font-style="normal" font-weight="bold" text-decoration="none" x="105.5" y="441.5">注册用户</text></g></g><g transform="translate(-78,-46) scale(1,1)"><path fill="#C0C0C0" stroke="none" d="M 431 112 C 431 98.19288 453.6096176 87 481.5 87 C 509.3903824 87 532 98.19288 532 112 C 532 125.80712 509.3903824 137 481.5 137 C 453.6096176 137 431 125.80712 431 112 Z" opacity="0.2"/></g><g transform="translate(-78,-46) scale(1,1)"><path fill="#ffffff" stroke="none" d="M 424 105 C 424 91.19288 446.6096176 80 474.5 80 C 502.3903824 80 525 91.19288 525 105 C 525 118.80712 502.3903824 130 474.5 130 C 446.6096176 130 424 118.80712 424 105 Z"/></g><g transform="translate(-78,-46) scale(1,1)"><path fill="none" stroke="#000000" d="M 424 105 C 424 91.19288 446.6096176 80 474.5 80 C 502.3903824 80 525 91.19288 525 105 C 525 118.80712 502.3903824 130 474.5 130 C 446.6096176 130 424 118.80712 424 105 Z" stroke-miterlimit="10"/></g><g transform="translate(-78,-46) scale(1,1)"><g><path fill="none" stroke="none"/><text fill="#000000" stroke="none" font-family="Arial" font-size="13px" font-style="normal" font-weight="bold" text-decoration="none" x="461.5" y="112">注册</text></g></g><g transform="translate(-78,-46) scale(1,1)"><path fill="#C0C0C0" stroke="none" d="M 407 250.5 C 407 239.7304464 434.9822 231 469.5 231 C 504.0178 231 532 239.7304464 532 250.5 C 532 261.2695536 504.0178 270 469.5 270 C 434.9822 270 407 261.2695536 407 250.5 Z" opacity="0.2"/></g><g transform="translate(-78,-46) scale(1,1)"><path fill="#ffffff" stroke="none" d="M 400 243.5 C 400 232.7304464 427.9822 224 462.5 224 C 497.0178 224 525 232.7304464 525 243.5 C 525 254.2695536 497.0178 263 462.5 263 C 427.9822 263 400 254.2695536 400 243.5 Z"/></g><g transform="translate(-78,-46) scale(1,1)"><path fill="none" stroke="#000000" d="M 400 243.5 C 400 232.7304464 427.9822 224 462.5 224 C 497.0178 224 525 232.7304464 525 243.5 C 525 254.2695536 497.0178 263 462.5 263 C 427.9822 263 400 254.2695536 400 243.5 Z" stroke-miterlimit="10"/></g><g transform="translate(-78,-46) scale(1,1)"><g><path fill="none" stroke="none"/><text fill="#000000" stroke="none" font-family="Arial" font-size="13px" font-style="normal" font-weight="bold" text-decoration="none" x="449.5" y="250.5">登录</text></g></g><g transform="translate(-78,-46) scale(1,1)"><path fill="#C0C0C0" stroke="none" d="M 407 375 C 407 361.7451648 435.4299152 351 470.5 351 C 505.5700848 351 534 361.7451648 534 375 C 534 388.2548352 505.5700848 399 470.5 399 C 435.4299152 399 407 388.2548352 407 375 Z" opacity="0.2"/></g><g transform="translate(-78,-46) scale(1,1)"><path fill="#ffffff" stroke="none" d="M 400 368 C 400 354.7451648 428.4299152 344 463.5 344 C 498.5700848 344 527 354.7451648 527 368 C 527 381.2548352 498.5700848 392 463.5 392 C 428.4299152 392 400 381.2548352 400 368 Z"/></g><g transform="translate(-78,-46) scale(1,1)"><path fill="none" stroke="#000000" d="M 400 368 C 400 354.7451648 428.4299152 344 463.5 344 C 498.5700848 344 527 354.7451648 527 368 C 527 381.2548352 498.5700848 392 463.5 392 C 428.4299152 392 400 381.2548352 400 368 Z" stroke-miterlimit="10"/></g><g transform="translate(-78,-46) scale(1,1)"><g><path fill="none" stroke="none"/><text fill="#000000" stroke="none" font-family="Arial" font-size="13px" font-style="normal" font-weight="bold" text-decoration="none" x="444" y="375">排行榜</text></g></g><g transform="translate(-78,-46) scale(1,1)"><path fill="#C0C0C0" stroke="none" d="M 415 492 C 415 480.4020192 441.6390544 471 474.5 471 C 507.3609456 471 534 480.4020192 534 492 C 534 503.5979808 507.3609456 513 474.5 513 C 441.6390544 513 415 503.5979808 415 492 Z" opacity="0.2"/></g><g transform="translate(-78,-46) scale(1,1)"><path fill="#ffffff" stroke="none" d="M 408 485 C 408 473.4020192 434.6390544 464 467.5 464 C 500.3609456 464 527 473.4020192 527 485 C 527 496.5979808 500.3609456 506 467.5 506 C 434.6390544 506 408 496.5979808 408 485 Z"/></g><g transform="translate(-78,-46) scale(1,1)"><path fill="none" stroke="#000000" d="M 408 485 C 408 473.4020192 434.6390544 464 467.5 464 C 500.3609456 464 527 473.4020192 527 485 C 527 496.5979808 500.3609456 506 467.5 506 C 434.6390544 506 408 496.5979808 408 485 Z" stroke-miterlimit="10"/></g><g transform="translate(-78,-46) scale(1,1)"><g><path fill="none" stroke="none"/><text fill="#000000" stroke="none" font-family="Arial" font-size="13px" font-style="normal" font-weight="bold" text-decoration="none" x="441.5" y="492">管理用户</text></g></g><g transform="translate(-78,-46) scale(1,1)"><path fill="#C0C0C0" stroke="none" d="M 407 614.5 C 407 601.5213072 437.220776 591 474.5 591 C 511.779224 591 542 601.5213072 542 614.5 C 542 627.4786928 511.779224 638 474.5 638 C 437.220776 638 407 627.4786928 407 614.5 Z" opacity="0.2"/></g><g transform="translate(-78,-46) scale(1,1)"><path fill="#ffffff" stroke="none" d="M 400 607.5 C 400 594.5213072 430.220776 584 467.5 584 C 504.779224 584 535 594.5213072 535 607.5 C 535 620.4786928 504.779224 631 467.5 631 C 430.220776 631 400 620.4786928 400 607.5 Z"/></g><g transform="translate(-78,-46) scale(1,1)"><path fill="none" stroke="#000000" d="M 400 607.5 C 400 594.5213072 430.220776 584 467.5 584 C 504.779224 584 535 594.5213072 535 607.5 C 535 620.4786928 504.779224 631 467.5 631 C 430.220776 631 400 620.4786928 400 607.5 Z" stroke-miterlimit="10"/></g><g transform="translate(-78,-46) scale(1,1)"><g><path fill="none" stroke="none"/><text fill="#000000" stroke="none" font-family="Arial" font-size="13px" font-style="normal" font-weight="bold" text-decoration="none" x="441.5" y="614.5">管理植物</text></g></g><g transform="translate(-78,-46) scale(1,1)"><path fill="#C0C0C0" stroke="none" d="M 407 750.5 C 407 737.5213072 437.220776 727 474.5 727 C 511.779224 727 542 737.5213072 542 750.5 C 542 763.4786928 511.779224 774 474.5 774 C 437.220776 774 407 763.4786928 407 750.5 Z" opacity="0.2"/></g><g transform="translate(-78,-46) scale(1,1)"><path fill="#ffffff" stroke="none" d="M 400 743.5 C 400 730.5213072 430.220776 720 467.5 720 C 504.779224 720 535 730.5213072 535 743.5 C 535 756.4786928 504.779224 767 467.5 767 C 430.220776 767 400 756.4786928 400 743.5 Z"/></g><g transform="translate(-78,-46) scale(1,1)"><path fill="none" stroke="#000000" d="M 400 743.5 C 400 730.5213072 430.220776 720 467.5 720 C 504.779224 720 535 730.5213072 535 743.5 C 535 756.4786928 504.779224 767 467.5 767 C 430.220776 767 400 756.4786928 400 743.5 Z" stroke-miterlimit="10"/></g><g transform="translate(-78,-46) scale(1,1)"><g><path fill="none" stroke="none"/><text fill="#000000" stroke="none" font-family="Arial" font-size="13px" font-style="normal" font-weight="bold" text-decoration="none" x="441.5" y="750.5">管理相册</text></g></g><g transform="translate(-78,-46) scale(1,1)"><path fill="#C0C0C0" stroke="none" d="M 791 88 C 791 78.6111584 814.0573328 71 842.5 71 C 870.9426672 71 894 78.6111584 894 88 C 894 97.3888416 870.9426672 105 842.5 105 C 814.0573328 105 791 97.3888416 791 88 Z" opacity="0.2"/></g><g transform="translate(-78,-46) scale(1,1)"><path fill="#ffffff" stroke="none" d="M 784 81 C 784 71.6111584 807.0573328 64 835.5 64 C 863.9426672 64 887 71.6111584 887 81 C 887 90.3888416 863.9426672 98 835.5 98 C 807.0573328 98 784 90.3888416 784 81 Z"/></g><g transform="translate(-78,-46) scale(1,1)"><path fill="none" stroke="#000000" d="M 784 81 C 784 71.6111584 807.0573328 64 835.5 64 C 863.9426672 64 887 71.6111584 887 81 C 887 90.3888416 863.9426672 98 835.5 98 C 807.0573328 98 784 90.3888416 784 81 Z" stroke-miterlimit="10"/></g><g transform="translate(-78,-46) scale(1,1)"><g><path fill="none" stroke="none"/><text fill="#000000" stroke="none" font-family="Arial" font-size="13px" font-style="normal" font-weight="bold" text-decoration="none" x="809.5" y="88">添加新闻</text></g></g><g transform="translate(-78,-46) scale(1,1)"><path fill="#C0C0C0" stroke="none" d="M 815 128 C 815 118.6111584 839.8481936 111 870.5 111 C 901.1518064 111 926 118.6111584 926 128 C 926 137.3888416 901.1518064 145 870.5 145 C 839.8481936 145 815 137.3888416 815 128 Z" opacity="0.2"/></g><g transform="translate(-78,-46) scale(1,1)"><path fill="#ffffff" stroke="none" d="M 808 121 C 808 111.6111584 832.8481936 104 863.5 104 C 894.1518064 104 919 111.6111584 919 121 C 919 130.3888416 894.1518064 138 863.5 138 C 832.8481936 138 808 130.3888416 808 121 Z"/></g><g transform="translate(-78,-46) scale(1,1)"><path fill="none" stroke="#000000" d="M 808 121 C 808 111.6111584 832.8481936 104 863.5 104 C 894.1518064 104 919 111.6111584 919 121 C 919 130.3888416 894.1518064 138 863.5 138 C 832.8481936 138 808 130.3888416 808 121 Z" stroke-miterlimit="10"/></g><g transform="translate(-78,-46) scale(1,1)"><g><path fill="none" stroke="none"/><text fill="#000000" stroke="none" font-family="Arial" font-size="13px" font-style="normal" font-weight="bold" text-decoration="none" x="837.5" y="128">修改新闻</text></g></g><g transform="translate(-78,-46) scale(1,1)"><path fill="#C0C0C0" stroke="none" d="M 775 168 C 775 158.6111584 799.8481936 151 830.5 151 C 861.1518064 151 886 158.6111584 886 168 C 886 177.3888416 861.1518064 185 830.5 185 C 799.8481936 185 775 177.3888416 775 168 Z" opacity="0.2"/></g><g transform="translate(-78,-46) scale(1,1)"><path fill="#ffffff" stroke="none" d="M 768 161 C 768 151.6111584 792.8481936 144 823.5 144 C 854.1518064 144 879 151.6111584 879 161 C 879 170.3888416 854.1518064 178 823.5 178 C 792.8481936 178 768 170.3888416 768 161 Z"/></g><g transform="translate(-78,-46) scale(1,1)"><path fill="none" stroke="#000000" d="M 768 161 C 768 151.6111584 792.8481936 144 823.5 144 C 854.1518064 144 879 151.6111584 879 161 C 879 170.3888416 854.1518064 178 823.5 178 C 792.8481936 178 768 170.3888416 768 161 Z" stroke-miterlimit="10"/></g><g transform="translate(-78,-46) scale(1,1)"><g><path fill="none" stroke="none"/><text fill="#000000" stroke="none" font-family="Arial" font-size="13px" font-style="normal" font-weight="bold" text-decoration="none" x="797.5" y="168">删除新闻</text></g></g><g transform="translate(-78,-46) scale(1,1)"><path fill="#C0C0C0" stroke="none" d="M 639 176 C 639 166.6111584 661.6096176 159 689.5 159 C 717.3903824 159 740 166.6111584 740 176 C 740 185.3888416 717.3903824 193 689.5 193 C 661.6096176 193 639 185.3888416 639 176 Z" opacity="0.2"/></g><g transform="translate(-78,-46) scale(1,1)"><path fill="#ffffff" stroke="none" d="M 632 169 C 632 159.6111584 654.6096176 152 682.5 152 C 710.3903824 152 733 159.6111584 733 169 C 733 178.3888416 710.3903824 186 682.5 186 C 654.6096176 186 632 178.3888416 632 169 Z"/></g><g transform="translate(-78,-46) scale(1,1)"><path fill="none" stroke="#000000" d="M 632 169 C 632 159.6111584 654.6096176 152 682.5 152 C 710.3903824 152 733 159.6111584 733 169 C 733 178.3888416 710.3903824 186 682.5 186 C 654.6096176 186 632 178.3888416 632 169 Z" stroke-miterlimit="10"/></g><g transform="translate(-78,-46) scale(1,1)"><g><path fill="none" stroke="none"/><text fill="#000000" stroke="none" font-family="Arial" font-size="13px" font-style="normal" font-weight="bold" text-decoration="none" x="656.5" y="176">查询新闻</text></g></g><g transform="translate(-78,-46) scale(1,1)"><path fill="none" stroke="#000000" d="M 526 102 L 783 84" stroke-miterlimit="10" stroke-dasharray="3"/></g><g transform="translate(-78,-46) scale(1,1)"><path fill="none" stroke="#000000" d="M 773.1562696015693 88.90927406476871 L 783 84 L 772.5680505011962 80.51081246499868" stroke-miterlimit="10"/></g><g transform="translate(-78,-46) scale(1,1)"><g><path fill="none" stroke="none"/><text fill="#000000" stroke="none" font-family="Arial" font-size="13px" font-style="normal" font-weight="normal" text-decoration="none" x="623.5" y="69.5">«include»</text></g></g><g transform="translate(-78,-46) scale(1,1)"><path fill="none" stroke="#000000" d="M 526 107 L 807 119" stroke-miterlimit="10" stroke-dasharray="3"/></g><g transform="translate(-78,-46) scale(1,1)"><path fill="none" stroke="#000000" d="M 796.6669770577803 122.77208654136697 L 807 119 L 797.0261814347772 114.36071738002339" stroke-miterlimit="10"/></g><g transform="translate(-78,-46) scale(1,1)"><g><path fill="none" stroke="none"/><text fill="#000000" stroke="none" font-family="Arial" font-size="13px" font-style="normal" font-weight="normal" text-decoration="none" x="639.5" y="89.5">«include»</text></g></g><g transform="translate(-78,-46) scale(1,1)"><path fill="none" stroke="#000000" d="M 526 113 L 767 152" stroke-miterlimit="10" stroke-dasharray="3"/></g><g transform="translate(-78,-46) scale(1,1)"><path fill="none" stroke="#000000" d="M 756.2953750920558 154.53199636260024 L 767 152 L 757.6402953395999 146.22107893546854" stroke-miterlimit="10"/></g><g transform="translate(-78,-46) scale(1,1)"><g><path fill="none" stroke="none"/><text fill="#000000" stroke="none" font-family="Arial" font-size="13px" font-style="normal" font-weight="normal" text-decoration="none" x="622.5" y="108.5">«include»</text></g></g><g transform="translate(-78,-46) scale(1,1)"><path fill="none" stroke="#000000" d="M 526 121 L 631 153" stroke-miterlimit="10" stroke-dasharray="3"/></g><g transform="translate(-78,-46) scale(1,1)"><path fill="none" stroke="#000000" d="M 620.0515804455201 154.0640062307532 L 631 153 L 622.5059322687615 146.01066431074216" stroke-miterlimit="10"/></g><g transform="translate(-78,-46) scale(1,1)"><g><path fill="none" stroke="none"/><text fill="#000000" stroke="none" font-family="Arial" font-size="13px" font-style="normal" font-weight="normal" text-decoration="none" x="558.5" y="114.5">«include»</text></g></g><g transform="translate(-78,-46) scale(1,1)"><path fill="#C0C0C0" stroke="none" d="M 703 216 C 703 206.6111584 730.9822 199 765.5 199 C 800.0178 199 828 206.6111584 828 216 C 828 225.3888416 800.0178 233 765.5 233 C 730.9822 233 703 225.3888416 703 216 Z" opacity="0.2"/></g><g transform="translate(-78,-46) scale(1,1)"><path fill="#ffffff" stroke="none" d="M 696 209 C 696 199.6111584 723.9822 192 758.5 192 C 793.0178 192 821 199.6111584 821 209 C 821 218.3888416 793.0178 226 758.5 226 C 723.9822 226 696 218.3888416 696 209 Z"/></g><g transform="translate(-78,-46) scale(1,1)"><path fill="none" stroke="#000000" d="M 696 209 C 696 199.6111584 723.9822 192 758.5 192 C 793.0178 192 821 199.6111584 821 209 C 821 218.3888416 793.0178 226 758.5 226 C 723.9822 226 696 218.3888416 696 209 Z" stroke-miterlimit="10"/></g><g transform="translate(-78,-46) scale(1,1)"><g><path fill="none" stroke="none"/><text fill="#000000" stroke="none" font-family="Arial" font-size="13px" font-style="normal" font-weight="bold" text-decoration="none" x="719.5" y="216">添加推送通知</text></g></g><g transform="translate(-78,-46) scale(1,1)"><path fill="#C0C0C0" stroke="none" d="M 791 256 C 791 246.6111584 818.9822 239 853.5 239 C 888.0178 239 916 246.6111584 916 256 C 916 265.3888416 888.0178 273 853.5 273 C 818.9822 273 791 265.3888416 791 256 Z" opacity="0.2"/></g><g transform="translate(-78,-46) scale(1,1)"><path fill="#ffffff" stroke="none" d="M 784 249 C 784 239.6111584 811.9822 232 846.5 232 C 881.0178 232 909 239.6111584 909 249 C 909 258.3888416 881.0178 266 846.5 266 C 811.9822 266 784 258.3888416 784 249 Z"/></g><g transform="translate(-78,-46) scale(1,1)"><path fill="none" stroke="#000000" d="M 784 249 C 784 239.6111584 811.9822 232 846.5 232 C 881.0178 232 909 239.6111584 909 249 C 909 258.3888416 881.0178 266 846.5 266 C 811.9822 266 784 258.3888416 784 249 Z" stroke-miterlimit="10"/></g><g transform="translate(-78,-46) scale(1,1)"><g><path fill="none" stroke="none"/><text fill="#000000" stroke="none" font-family="Arial" font-size="13px" font-style="normal" font-weight="bold" text-decoration="none" x="807.5" y="256">修改推送通知</text></g></g><g transform="translate(-78,-46) scale(1,1)"><path fill="#C0C0C0" stroke="none" d="M 671 280 C 671 270.6111584 698.9822 263 733.5 263 C 768.0178 263 796 270.6111584 796 280 C 796 289.3888416 768.0178 297 733.5 297 C 698.9822 297 671 289.3888416 671 280 Z" opacity="0.2"/></g><g transform="translate(-78,-46) scale(1,1)"><path fill="#ffffff" stroke="none" d="M 664 273 C 664 263.6111584 691.9822 256 726.5 256 C 761.0178 256 789 263.6111584 789 273 C 789 282.3888416 761.0178 290 726.5 290 C 691.9822 290 664 282.3888416 664 273 Z"/></g><g transform="translate(-78,-46) scale(1,1)"><path fill="none" stroke="#000000" d="M 664 273 C 664 263.6111584 691.9822 256 726.5 256 C 761.0178 256 789 263.6111584 789 273 C 789 282.3888416 761.0178 290 726.5 290 C 691.9822 290 664 282.3888416 664 273 Z" stroke-miterlimit="10"/></g><g transform="translate(-78,-46) scale(1,1)"><g><path fill="none" stroke="none"/><text fill="#000000" stroke="none" font-family="Arial" font-size="13px" font-style="normal" font-weight="bold" text-decoration="none" x="687.5" y="280">查询推送通知</text></g></g><g transform="translate(-78,-46) scale(1,1)"><path fill="#C0C0C0" stroke="none" d="M 775 312 C 775 302.6111584 802.9822 295 837.5 295 C 872.0178 295 900 302.6111584 900 312 C 900 321.3888416 872.0178 329 837.5 329 C 802.9822 329 775 321.3888416 775 312 Z" opacity="0.2"/></g><g transform="translate(-78,-46) scale(1,1)"><path fill="#ffffff" stroke="none" d="M 768 305 C 768 295.6111584 795.9822 288 830.5 288 C 865.0178 288 893 295.6111584 893 305 C 893 314.3888416 865.0178 322 830.5 322 C 795.9822 322 768 314.3888416 768 305 Z"/></g><g transform="translate(-78,-46) scale(1,1)"><path fill="none" stroke="#000000" d="M 768 305 C 768 295.6111584 795.9822 288 830.5 288 C 865.0178 288 893 295.6111584 893 305 C 893 314.3888416 865.0178 322 830.5 322 C 795.9822 322 768 314.3888416 768 305 Z" stroke-miterlimit="10"/></g><g transform="translate(-78,-46) scale(1,1)"><g><path fill="none" stroke="none"/><text fill="#000000" stroke="none" font-family="Arial" font-size="13px" font-style="normal" font-weight="bold" text-decoration="none" x="791.5" y="312">删除推送通知</text></g></g><g transform="translate(-78,-46) scale(1,1)"><path fill="none" stroke="#000000" d="M 526 236 L 695 216" stroke-miterlimit="10" stroke-dasharray="3"/></g><g transform="translate(-78,-46) scale(1,1)"><path fill="none" stroke="#000000" d="M 685.4024665114057 221.37469542721354 L 695 216 L 684.4130354041549 213.01400257094497" stroke-miterlimit="10"/></g><g transform="translate(-78,-46) scale(1,1)"><g><path fill="none" stroke="none"/><text fill="#000000" stroke="none" font-family="Arial" font-size="13px" font-style="normal" font-weight="normal" text-decoration="none" x="578.5" y="202.5">«include»</text></g></g><g transform="translate(-78,-46) scale(1,1)"><path fill="none" stroke="#000000" d="M 526 244 L 783 248" stroke-miterlimit="10" stroke-dasharray="3"/></g><g transform="translate(-78,-46) scale(1,1)"><path fill="none" stroke="#000000" d="M 772.773045992421 252.05085320974035 L 783 248 L 772.9040656961593 243.63283724455664" stroke-miterlimit="10"/></g><g transform="translate(-78,-46) scale(1,1)"><g><path fill="none" stroke="none"/><text fill="#000000" stroke="none" font-family="Arial" font-size="13px" font-style="normal" font-weight="normal" text-decoration="none" x="626.5" y="222.5">«include»</text></g></g><g transform="translate(-78,-46) scale(1,1)"><path fill="none" stroke="#000000" d="M 526 250 L 663 266" stroke-miterlimit="10" stroke-dasharray="3"/></g><g transform="translate(-78,-46) scale(1,1)"><path fill="none" stroke="#000000" d="M 652.4176274054423 269.0022308821865 L 663 266 L 653.3942347618638 260.6400303928273" stroke-miterlimit="10"/></g><g transform="translate(-78,-46) scale(1,1)"><g><path fill="none" stroke="none"/><text fill="#000000" stroke="none" font-family="Arial" font-size="13px" font-style="normal" font-weight="normal" text-decoration="none" x="569.5" y="234.5">«include»</text></g></g><g transform="translate(-78,-46) scale(1,1)"><path fill="none" stroke="#000000" d="M 526 254 L 767 294" stroke-miterlimit="10" stroke-dasharray="3"/></g><g transform="translate(-78,-46) scale(1,1)"><path fill="none" stroke="#000000" d="M 756.2852311660534 296.48872032078475 L 767 294 L 757.6637232833665 288.18330531397373" stroke-miterlimit="10"/></g><g transform="translate(-78,-46) scale(1,1)"><g><path fill="none" stroke="none"/><text fill="#000000" stroke="none" font-family="Arial" font-size="13px" font-style="normal" font-weight="normal" text-decoration="none" x="622.5" y="250.5">«include»</text></g></g><g transform="translate(-78,-46) scale(1,1)"><path fill="#C0C0C0" stroke="none" d="M 783 370.5 C 783 359.7304464 806.7289056 351 836 351 C 865.2710944 351 889 359.7304464 889 370.5 C 889 381.2695536 865.2710944 390 836 390 C 806.7289056 390 783 381.2695536 783 370.5 Z" opacity="0.2"/></g><g transform="translate(-78,-46) scale(1,1)"><path fill="#ffffff" stroke="none" d="M 776 363.5 C 776 352.7304464 799.7289056 344 829 344 C 858.2710944 344 882 352.7304464 882 363.5 C 882 374.2695536 858.2710944 383 829 383 C 799.7289056 383 776 374.2695536 776 363.5 Z"/></g><g transform="translate(-78,-46) scale(1,1)"><path fill="none" stroke="#000000" d="M 776 363.5 C 776 352.7304464 799.7289056 344 829 344 C 858.2710944 344 882 352.7304464 882 363.5 C 882 374.2695536 858.2710944 383 829 383 C 799.7289056 383 776 374.2695536 776 363.5 Z" stroke-miterlimit="10"/></g><g transform="translate(-78,-46) scale(1,1)"><g><path fill="none" stroke="none"/><text fill="#000000" stroke="none" font-family="Arial" font-size="13px" font-style="normal" font-weight="bold" text-decoration="none" x="796.5" y="370.5">添加排行榜</text></g></g><g transform="translate(-78,-46) scale(1,1)"><path fill="#C0C0C0" stroke="none" d="M 687 344 C 687 334.6111584 710.7289056 327 740 327 C 769.2710944 327 793 334.6111584 793 344 C 793 353.3888416 769.2710944 361 740 361 C 710.7289056 361 687 353.3888416 687 344 Z" opacity="0.2"/></g><g transform="translate(-78,-46) scale(1,1)"><path fill="#ffffff" stroke="none" d="M 680 337 C 680 327.6111584 703.7289056 320 733 320 C 762.2710944 320 786 327.6111584 786 337 C 786 346.3888416 762.2710944 354 733 354 C 703.7289056 354 680 346.3888416 680 337 Z"/></g><g transform="translate(-78,-46) scale(1,1)"><path fill="none" stroke="#000000" d="M 680 337 C 680 327.6111584 703.7289056 320 733 320 C 762.2710944 320 786 327.6111584 786 337 C 786 346.3888416 762.2710944 354 733 354 C 703.7289056 354 680 346.3888416 680 337 Z" stroke-miterlimit="10"/></g><g transform="translate(-78,-46) scale(1,1)"><g><path fill="none" stroke="none"/><text fill="#000000" stroke="none" font-family="Arial" font-size="13px" font-style="normal" font-weight="bold" text-decoration="none" x="700.5" y="344">修改排行榜</text></g></g><g transform="translate(-78,-46) scale(1,1)"><path fill="#C0C0C0" stroke="none" d="M 783 416 C 783 406.6111584 806.7289056 399 836 399 C 865.2710944 399 889 406.6111584 889 416 C 889 425.3888416 865.2710944 433 836 433 C 806.7289056 433 783 425.3888416 783 416 Z" opacity="0.2"/></g><g transform="translate(-78,-46) scale(1,1)"><path fill="#ffffff" stroke="none" d="M 776 409 C 776 399.6111584 799.7289056 392 829 392 C 858.2710944 392 882 399.6111584 882 409 C 882 418.3888416 858.2710944 426 829 426 C 799.7289056 426 776 418.3888416 776 409 Z"/></g><g transform="translate(-78,-46) scale(1,1)"><path fill="none" stroke="#000000" d="M 776 409 C 776 399.6111584 799.7289056 392 829 392 C 858.2710944 392 882 399.6111584 882 409 C 882 418.3888416 858.2710944 426 829 426 C 799.7289056 426 776 418.3888416 776 409 Z" stroke-miterlimit="10"/></g><g transform="translate(-78,-46) scale(1,1)"><g><path fill="none" stroke="none"/><text fill="#000000" stroke="none" font-family="Arial" font-size="13px" font-style="normal" font-weight="bold" text-decoration="none" x="796.5" y="416">删除排行榜</text></g></g><g transform="translate(-78,-46) scale(1,1)"><path fill="#C0C0C0" stroke="none" d="M 759 456 C 759 446.6111584 782.7289056 439 812 439 C 841.2710944 439 865 446.6111584 865 456 C 865 465.3888416 841.2710944 473 812 473 C 782.7289056 473 759 465.3888416 759 456 Z" opacity="0.2"/></g><g transform="translate(-78,-46) scale(1,1)"><path fill="#ffffff" stroke="none" d="M 752 449 C 752 439.6111584 775.7289056 432 805 432 C 834.2710944 432 858 439.6111584 858 449 C 858 458.3888416 834.2710944 466 805 466 C 775.7289056 466 752 458.3888416 752 449 Z"/></g><g transform="translate(-78,-46) scale(1,1)"><path fill="none" stroke="#000000" d="M 752 449 C 752 439.6111584 775.7289056 432 805 432 C 834.2710944 432 858 439.6111584 858 449 C 858 458.3888416 834.2710944 466 805 466 C 775.7289056 466 752 458.3888416 752 449 Z" stroke-miterlimit="10"/></g><g transform="translate(-78,-46) scale(1,1)"><g><path fill="none" stroke="none"/><text fill="#000000" stroke="none" font-family="Arial" font-size="13px" font-style="normal" font-weight="bold" text-decoration="none" x="772.5" y="456">查询排行榜</text></g></g><g transform="translate(-78,-46) scale(1,1)"><path fill="#C0C0C0" stroke="none" d="M 807 496 C 807 486.6111584 829.6096176 479 857.5 479 C 885.3903824 479 908 486.6111584 908 496 C 908 505.3888416 885.3903824 513 857.5 513 C 829.6096176 513 807 505.3888416 807 496 Z" opacity="0.2"/></g><g transform="translate(-78,-46) scale(1,1)"><path fill="#ffffff" stroke="none" d="M 800 489 C 800 479.6111584 822.6096176 472 850.5 472 C 878.3903824 472 901 479.6111584 901 489 C 901 498.3888416 878.3903824 506 850.5 506 C 822.6096176 506 800 498.3888416 800 489 Z"/></g><g transform="translate(-78,-46) scale(1,1)"><path fill="none" stroke="#000000" d="M 800 489 C 800 479.6111584 822.6096176 472 850.5 472 C 878.3903824 472 901 479.6111584 901 489 C 901 498.3888416 878.3903824 506 850.5 506 C 822.6096176 506 800 498.3888416 800 489 Z" stroke-miterlimit="10"/></g><g transform="translate(-78,-46) scale(1,1)"><g><path fill="none" stroke="none"/><text fill="#000000" stroke="none" font-family="Arial" font-size="13px" font-style="normal" font-weight="bold" text-decoration="none" x="824.5" y="496">修改用户</text></g></g><g transform="translate(-78,-46) scale(1,1)"><path fill="none" stroke="#000000" d="M 528 367 L 775 364" stroke-miterlimit="10" stroke-dasharray="3"/></g><g transform="translate(-78,-46) scale(1,1)"><path fill="none" stroke="#000000" d="M 764.8891986296567 368.33263149246096 L 775 364 L 764.7869506790985 359.91421689650156" stroke-miterlimit="10"/></g><g transform="translate(-78,-46) scale(1,1)"><g><path fill="none" stroke="none"/><text fill="#000000" stroke="none" font-family="Arial" font-size="13px" font-style="normal" font-weight="normal" text-decoration="none" x="622.5" y="341.5">«include»</text></g></g><g transform="translate(-78,-46) scale(1,1)"><path fill="none" stroke="#000000" d="M 528 361 L 679 343" stroke-miterlimit="10" stroke-dasharray="3"/></g><g transform="translate(-78,-46) scale(1,1)"><path fill="none" stroke="#000000" d="M 669.4070390607773 348.38285244257605 L 679 343 L 668.4105008039459 340.02300373249005" stroke-miterlimit="10"/></g><g transform="translate(-78,-46) scale(1,1)"><g><path fill="none" stroke="none"/><text fill="#000000" stroke="none" font-family="Arial" font-size="13px" font-style="normal" font-weight="normal" text-decoration="none" x="571.5" y="328.5">«include»</text></g></g><g transform="translate(-78,-46) scale(1,1)"><path fill="none" stroke="#000000" d="M 528 375 L 775 403" stroke-miterlimit="10" stroke-dasharray="3"/></g><g transform="translate(-78,-46) scale(1,1)"><path fill="none" stroke="#000000" d="M 764.4278450770905 406.03801584689774 L 775 403 L 765.3761559555625 397.6725591689496" stroke-miterlimit="10"/></g><g transform="translate(-78,-46) scale(1,1)"><g><path fill="none" stroke="none"/><text fill="#000000" stroke="none" font-family="Arial" font-size="13px" font-style="normal" font-weight="normal" text-decoration="none" x="626.5" y="365.5">«include»</text></g></g><g transform="translate(-78,-46) scale(1,1)"><path fill="none" stroke="#000000" d="M 528 383 L 751 436" stroke-miterlimit="10" stroke-dasharray="3"/></g><g transform="translate(-78,-46) scale(1,1)"><path fill="none" stroke="#000000" d="M 740.1393806892519 437.74555096946654 L 751 436 L 742.086091510068 429.55467336490096" stroke-miterlimit="10"/></g><g transform="translate(-78,-46) scale(1,1)"><g><path fill="none" stroke="none"/><text fill="#000000" stroke="none" font-family="Arial" font-size="13px" font-style="normal" font-weight="normal" text-decoration="none" x="618.5" y="385.5">«include»</text></g></g><g transform="translate(-78,-46) scale(1,1)"><path fill="#C0C0C0" stroke="none" d="M 839 536 C 839 526.6111584 861.6096176 519 889.5 519 C 917.3903824 519 940 526.6111584 940 536 C 940 545.3888416 917.3903824 553 889.5 553 C 861.6096176 553 839 545.3888416 839 536 Z" opacity="0.2"/></g><g transform="translate(-78,-46) scale(1,1)"><path fill="#ffffff" stroke="none" d="M 832 529 C 832 519.6111584 854.6096176 512 882.5 512 C 910.3903824 512 933 519.6111584 933 529 C 933 538.3888416 910.3903824 546 882.5 546 C 854.6096176 546 832 538.3888416 832 529 Z"/></g><g transform="translate(-78,-46) scale(1,1)"><path fill="none" stroke="#000000" d="M 832 529 C 832 519.6111584 854.6096176 512 882.5 512 C 910.3903824 512 933 519.6111584 933 529 C 933 538.3888416 910.3903824 546 882.5 546 C 854.6096176 546 832 538.3888416 832 529 Z" stroke-miterlimit="10"/></g><g transform="translate(-78,-46) scale(1,1)"><g><path fill="none" stroke="none"/><text fill="#000000" stroke="none" font-family="Arial" font-size="13px" font-style="normal" font-weight="bold" text-decoration="none" x="856.5" y="536">删除用户</text></g></g><g transform="translate(-78,-46) scale(1,1)"><path fill="#C0C0C0" stroke="none" d="M 735 560 C 735 550.6111584 757.6096176 543 785.5 543 C 813.3903824 543 836 550.6111584 836 560 C 836 569.3888416 813.3903824 577 785.5 577 C 757.6096176 577 735 569.3888416 735 560 Z" opacity="0.2"/></g><g transform="translate(-78,-46) scale(1,1)"><path fill="#ffffff" stroke="none" d="M 728 553 C 728 543.6111584 750.6096176 536 778.5 536 C 806.3903824 536 829 543.6111584 829 553 C 829 562.3888416 806.3903824 570 778.5 570 C 750.6096176 570 728 562.3888416 728 553 Z"/></g><g transform="translate(-78,-46) scale(1,1)"><path fill="none" stroke="#000000" d="M 728 553 C 728 543.6111584 750.6096176 536 778.5 536 C 806.3903824 536 829 543.6111584 829 553 C 829 562.3888416 806.3903824 570 778.5 570 C 750.6096176 570 728 562.3888416 728 553 Z" stroke-miterlimit="10"/></g><g transform="translate(-78,-46) scale(1,1)"><g><path fill="none" stroke="none"/><text fill="#000000" stroke="none" font-family="Arial" font-size="13px" font-style="normal" font-weight="bold" text-decoration="none" x="752.5" y="560">查询用户</text></g></g><g transform="translate(-78,-46) scale(1,1)"><path fill="none" stroke="#000000" d="M 528 486 L 799 488" stroke-miterlimit="10" stroke-dasharray="3"/></g><g transform="translate(-78,-46) scale(1,1)"><path fill="none" stroke="#000000" d="M 788.8065361828884 492.1344038759218 L 799 488 L 788.8686675943125 483.715597627969" stroke-miterlimit="10"/></g><g transform="translate(-78,-46) scale(1,1)"><g><path fill="none" stroke="none"/><text fill="#000000" stroke="none" font-family="Arial" font-size="13px" font-style="normal" font-weight="normal" text-decoration="none" x="635.5" y="463.5">«include»</text></g></g><g transform="translate(-78,-46) scale(1,1)"><path fill="none" stroke="#000000" d="M 528 491 L 831 524" stroke-miterlimit="10" stroke-dasharray="3"/></g><g transform="translate(-78,-46) scale(1,1)"><path fill="none" stroke="#000000" d="M 820.4412996544157 527.0844524655373 L 831 524 L 821.3528341304916 518.7149086397496" stroke-miterlimit="10"/></g><g transform="translate(-78,-46) scale(1,1)"><g><path fill="none" stroke="none"/><text fill="#000000" stroke="none" font-family="Arial" font-size="13px" font-style="normal" font-weight="normal" text-decoration="none" x="654.5" y="483.5">«include»</text></g></g><g transform="translate(-78,-46) scale(1,1)"><path fill="none" stroke="#000000" d="M 528 498 L 727 542" stroke-miterlimit="10" stroke-dasharray="3"/></g><g transform="translate(-78,-46) scale(1,1)"><path fill="none" stroke="#000000" d="M 716.1681891659479 543.9162134680954 L 727 542 L 717.9857855692205 535.6957206442031" stroke-miterlimit="10"/></g><g transform="translate(-78,-46) scale(1,1)"><g><path fill="none" stroke="none"/><text fill="#000000" stroke="none" font-family="Arial" font-size="13px" font-style="normal" font-weight="normal" text-decoration="none" x="605.5" y="496.5">«include»</text></g></g><g transform="translate(-78,-46) scale(1,1)"><path fill="#C0C0C0" stroke="none" d="M 671 600 C 671 590.6111584 695.8481936 583 726.5 583 C 757.1518064 583 782 590.6111584 782 600 C 782 609.3888416 757.1518064 617 726.5 617 C 695.8481936 617 671 609.3888416 671 600 Z" opacity="0.2"/></g><g transform="translate(-78,-46) scale(1,1)"><path fill="#ffffff" stroke="none" d="M 664 593 C 664 583.6111584 688.8481936 576 719.5 576 C 750.1518064 576 775 583.6111584 775 593 C 775 602.3888416 750.1518064 610 719.5 610 C 688.8481936 610 664 602.3888416 664 593 Z"/></g><g transform="translate(-78,-46) scale(1,1)"><path fill="none" stroke="#000000" d="M 664 593 C 664 583.6111584 688.8481936 576 719.5 576 C 750.1518064 576 775 583.6111584 775 593 C 775 602.3888416 750.1518064 610 719.5 610 C 688.8481936 610 664 602.3888416 664 593 Z" stroke-miterlimit="10"/></g><g transform="translate(-78,-46) scale(1,1)"><g><path fill="none" stroke="none"/><text fill="#000000" stroke="none" font-family="Arial" font-size="13px" font-style="normal" font-weight="bold" text-decoration="none" x="693.5" y="600">修改植物</text></g></g><g transform="translate(-78,-46) scale(1,1)"><path fill="#C0C0C0" stroke="none" d="M 783 640 C 783 630.6111584 805.6096176 623 833.5 623 C 861.3903824 623 884 630.6111584 884 640 C 884 649.3888416 861.3903824 657 833.5 657 C 805.6096176 657 783 649.3888416 783 640 Z" opacity="0.2"/></g><g transform="translate(-78,-46) scale(1,1)"><path fill="#ffffff" stroke="none" d="M 776 633 C 776 623.6111584 798.6096176 616 826.5 616 C 854.3903824 616 877 623.6111584 877 633 C 877 642.3888416 854.3903824 650 826.5 650 C 798.6096176 650 776 642.3888416 776 633 Z"/></g><g transform="translate(-78,-46) scale(1,1)"><path fill="none" stroke="#000000" d="M 776 633 C 776 623.6111584 798.6096176 616 826.5 616 C 854.3903824 616 877 623.6111584 877 633 C 877 642.3888416 854.3903824 650 826.5 650 C 798.6096176 650 776 642.3888416 776 633 Z" stroke-miterlimit="10"/></g><g transform="translate(-78,-46) scale(1,1)"><g><path fill="none" stroke="none"/><text fill="#000000" stroke="none" font-family="Arial" font-size="13px" font-style="normal" font-weight="bold" text-decoration="none" x="800.5" y="640">删除植物</text></g></g><g transform="translate(-78,-46) scale(1,1)"><path fill="#C0C0C0" stroke="none" d="M 631 664 C 631 654.6111584 653.6096176 647 681.5 647 C 709.3903824 647 732 654.6111584 732 664 C 732 673.3888416 709.3903824 681 681.5 681 C 653.6096176 681 631 673.3888416 631 664 Z" opacity="0.2"/></g><g transform="translate(-78,-46) scale(1,1)"><path fill="#ffffff" stroke="none" d="M 624 657 C 624 647.6111584 646.6096176 640 674.5 640 C 702.3903824 640 725 647.6111584 725 657 C 725 666.3888416 702.3903824 674 674.5 674 C 646.6096176 674 624 666.3888416 624 657 Z"/></g><g transform="translate(-78,-46) scale(1,1)"><path fill="none" stroke="#000000" d="M 624 657 C 624 647.6111584 646.6096176 640 674.5 640 C 702.3903824 640 725 647.6111584 725 657 C 725 666.3888416 702.3903824 674 674.5 674 C 646.6096176 674 624 666.3888416 624 657 Z" stroke-miterlimit="10"/></g><g transform="translate(-78,-46) scale(1,1)"><g><path fill="none" stroke="none"/><text fill="#000000" stroke="none" font-family="Arial" font-size="13px" font-style="normal" font-weight="bold" text-decoration="none" x="648.5" y="664">查询植物</text></g></g><g transform="translate(-78,-46) scale(1,1)"><path fill="none" stroke="#000000" d="M 536 603 L 663 596" stroke-miterlimit="10" stroke-dasharray="3"/></g><g transform="translate(-78,-46) scale(1,1)"><path fill="none" stroke="#000000" d="M 653.0843962162237 600.7624365195938 L 663 596 L 652.6210581669575 592.356160482908" stroke-miterlimit="10"/></g><g transform="translate(-78,-46) scale(1,1)"><g><path fill="none" stroke="none"/><text fill="#000000" stroke="none" font-family="Arial" font-size="13px" font-style="normal" font-weight="normal" text-decoration="none" x="569.5" y="575.5">«include»</text></g></g><g transform="translate(-78,-46) scale(1,1)"><path fill="none" stroke="#000000" d="M 536 612 L 775 629" stroke-miterlimit="10" stroke-dasharray="3"/></g><g transform="translate(-78,-46) scale(1,1)"><path fill="none" stroke="#000000" d="M 764.5642695211686 632.4778627593956 L 775 629 L 765.1616038705785 624.080044552988" stroke-miterlimit="10"/></g><g transform="translate(-78,-46) scale(1,1)"><g><path fill="none" stroke="none"/><text fill="#000000" stroke="none" font-family="Arial" font-size="13px" font-style="normal" font-weight="normal" text-decoration="none" x="629.5" y="596.5">«include»</text></g></g><g transform="translate(-78,-46) scale(1,1)"><path fill="none" stroke="#000000" d="M 536 624 L 623 645" stroke-miterlimit="10" stroke-dasharray="3"/></g><g transform="translate(-78,-46) scale(1,1)"><path fill="none" stroke="#000000" d="M 612.1333210890066 646.707421870942 L 623 645 L 614.1087680697705 638.523427236349" stroke-miterlimit="10"/></g><g transform="translate(-78,-46) scale(1,1)"><g><path fill="none" stroke="none"/><text fill="#000000" stroke="none" font-family="Arial" font-size="13px" font-style="normal" font-weight="normal" text-decoration="none" x="558.5" y="610.5">«include»</text></g></g><g transform="translate(-78,-46) scale(1,1)"><path fill="#C0C0C0" stroke="none" d="M 767 696 C 767 686.6111584 789.6096176 679 817.5 679 C 845.3903824 679 868 686.6111584 868 696 C 868 705.3888416 845.3903824 713 817.5 713 C 789.6096176 713 767 705.3888416 767 696 Z" opacity="0.2"/></g><g transform="translate(-78,-46) scale(1,1)"><path fill="#ffffff" stroke="none" d="M 760 689 C 760 679.6111584 782.6096176 672 810.5 672 C 838.3903824 672 861 679.6111584 861 689 C 861 698.3888416 838.3903824 706 810.5 706 C 782.6096176 706 760 698.3888416 760 689 Z"/></g><g transform="translate(-78,-46) scale(1,1)"><path fill="none" stroke="#000000" d="M 760 689 C 760 679.6111584 782.6096176 672 810.5 672 C 838.3903824 672 861 679.6111584 861 689 C 861 698.3888416 838.3903824 706 810.5 706 C 782.6096176 706 760 698.3888416 760 689 Z" stroke-miterlimit="10"/></g><g transform="translate(-78,-46) scale(1,1)"><g><path fill="none" stroke="none"/><text fill="#000000" stroke="none" font-family="Arial" font-size="13px" font-style="normal" font-weight="bold" text-decoration="none" x="784.5" y="696">修改相册</text></g></g><g transform="translate(-78,-46) scale(1,1)"><path fill="#C0C0C0" stroke="none" d="M 767 752 C 767 742.6111584 789.6096176 735 817.5 735 C 845.3903824 735 868 742.6111584 868 752 C 868 761.3888416 845.3903824 769 817.5 769 C 789.6096176 769 767 761.3888416 767 752 Z" opacity="0.2"/></g><g transform="translate(-78,-46) scale(1,1)"><path fill="#ffffff" stroke="none" d="M 760 745 C 760 735.6111584 782.6096176 728 810.5 728 C 838.3903824 728 861 735.6111584 861 745 C 861 754.3888416 838.3903824 762 810.5 762 C 782.6096176 762 760 754.3888416 760 745 Z"/></g><g transform="translate(-78,-46) scale(1,1)"><path fill="none" stroke="#000000" d="M 760 745 C 760 735.6111584 782.6096176 728 810.5 728 C 838.3903824 728 861 735.6111584 861 745 C 861 754.3888416 838.3903824 762 810.5 762 C 782.6096176 762 760 754.3888416 760 745 Z" stroke-miterlimit="10"/></g><g transform="translate(-78,-46) scale(1,1)"><g><path fill="none" stroke="none"/><text fill="#000000" stroke="none" font-family="Arial" font-size="13px" font-style="normal" font-weight="bold" text-decoration="none" x="784.5" y="752">删除相册</text></g></g><g transform="translate(-78,-46) scale(1,1)"><path fill="#C0C0C0" stroke="none" d="M 759 792 C 759 782.6111584 781.6096176 775 809.5 775 C 837.3903824 775 860 782.6111584 860 792 C 860 801.3888416 837.3903824 809 809.5 809 C 781.6096176 809 759 801.3888416 759 792 Z" opacity="0.2"/></g><g transform="translate(-78,-46) scale(1,1)"><path fill="#ffffff" stroke="none" d="M 752 785 C 752 775.6111584 774.6096176 768 802.5 768 C 830.3903824 768 853 775.6111584 853 785 C 853 794.3888416 830.3903824 802 802.5 802 C 774.6096176 802 752 794.3888416 752 785 Z"/></g><g transform="translate(-78,-46) scale(1,1)"><path fill="none" stroke="#000000" d="M 752 785 C 752 775.6111584 774.6096176 768 802.5 768 C 830.3903824 768 853 775.6111584 853 785 C 853 794.3888416 830.3903824 802 802.5 802 C 774.6096176 802 752 794.3888416 752 785 Z" stroke-miterlimit="10"/></g><g transform="translate(-78,-46) scale(1,1)"><g><path fill="none" stroke="none"/><text fill="#000000" stroke="none" font-family="Arial" font-size="13px" font-style="normal" font-weight="bold" text-decoration="none" x="776.5" y="792">查询相册</text></g></g><g transform="translate(-78,-46) scale(1,1)"><path fill="none" stroke="#000000" d="M 536 732 L 759 697" stroke-miterlimit="10" stroke-dasharray="3"/></g><g transform="translate(-78,-46) scale(1,1)"><path fill="none" stroke="#000000" d="M 749.6129267006174 702.73435740707 L 759 697 L 748.3075338062249 694.4171398227978" stroke-miterlimit="10"/></g><g transform="translate(-78,-46) scale(1,1)"><g><path fill="none" stroke="none"/><text fill="#000000" stroke="none" font-family="Arial" font-size="13px" font-style="normal" font-weight="normal" text-decoration="none" x="614.5" y="690.5">«include»</text></g></g><g transform="translate(-78,-46) scale(1,1)"><path fill="none" stroke="#000000" d="M 536 743 L 759 745" stroke-miterlimit="10" stroke-dasharray="3"/></g><g transform="translate(-78,-46) scale(1,1)"><path fill="none" stroke="#000000" d="M 748.7999818357929 749.1182070673833 L 759 745 L 748.8754858441861 740.6995101315403" stroke-miterlimit="10"/></g><g transform="translate(-78,-46) scale(1,1)"><g><path fill="none" stroke="none"/><text fill="#000000" stroke="none" font-family="Arial" font-size="13px" font-style="normal" font-weight="normal" text-decoration="none" x="619.5" y="720.5">«include»</text></g></g><g transform="translate(-78,-46) scale(1,1)"><path fill="none" stroke="#000000" d="M 536 752 L 751 779" stroke-miterlimit="10" stroke-dasharray="3"/></g><g transform="translate(-78,-46) scale(1,1)"><path fill="none" stroke="#000000" d="M 740.3920084651198 781.910415021249 L 751 779 L 741.4410430533244 773.5569914485092" stroke-miterlimit="10"/></g><g transform="translate(-78,-46) scale(1,1)"><g><path fill="none" stroke="none"/><text fill="#000000" stroke="none" font-family="Arial" font-size="13px" font-style="normal" font-weight="normal" text-decoration="none" x="618.5" y="741.5">«include»</text></g></g><g transform="translate(-78,-46) scale(1,1)"><path fill="none" stroke="#000000" d="M 176 343 L 441 131" stroke-miterlimit="10"/></g><g transform="translate(-78,-46) scale(1,1)"><path fill="none" stroke="#000000" d="M 176 361 L 411 264" stroke-miterlimit="10"/></g><g transform="translate(-78,-46) scale(1,1)"><path fill="none" stroke="#000000" d="M 176 378 L 399 370" stroke-miterlimit="10"/></g><g transform="translate(-78,-46) scale(1,1)"><path fill="none" stroke="#000000" d="M 176 393 L 407 466" stroke-miterlimit="10"/></g><g transform="translate(-78,-46) scale(1,1)"><path fill="none" stroke="#000000" d="M 176 428 L 445 719" stroke-miterlimit="10"/></g><g transform="translate(-78,-46) scale(1,1)"><path fill="none" stroke="#000000" d="M 176 410 L 432 583" stroke-miterlimit="10"/></g></g></svg>