<svg version="1.1" xmlns="http://www.w3.org/2000/svg" xmlns:xlink="http://www.w3.org/1999/xlink" width="843" height="771"><defs/><g><g transform="translate(-286,-93) scale(1,1)"><path fill="none" stroke="#000000" d="M 560 103 L 1119 103 L 1119 854 L 560 854 L 560 103" stroke-miterlimit="10"/></g><g transform="translate(-286,-93) scale(1,1)"><path fill="#ffffff" stroke="none" d="M 560 103 L 560 125 L 576 125 L 587 114 L 587 103 L 560 103"/></g><g transform="translate(-286,-93) scale(1,1)"><path fill="none" stroke="#000000" d="M 560 103 L 560 125 L 576 125 L 587 114 L 587 103 L 560 103 L 560 103" stroke-miterlimit="10"/></g><g transform="translate(-286,-93) scale(1,1)"><g><path fill="none" stroke="none"/><text fill="#000000" stroke="none" font-family="Arial" font-size="13px" font-style="normal" font-weight="normal" text-decoration="none" x="571" y="120.5"></text></g></g><g transform="translate(-286,-93) scale(1,1)"><g><path fill="none" stroke="none"/><text fill="#000000" stroke="none" font-family="Arial" font-size="13px" font-style="normal" font-weight="bold" text-decoration="none" x="565" y="120.5"></text></g></g><g transform="translate(-286,-93) scale(1,1)"><path fill="#ffffff" stroke="none" d="M 321.82 187.2 C 321.82 177.14841664 329.73560473599997 169 339.5 169 C 349.26439526400003 169 357.18 177.14841664 357.18 187.2 C 357.18 197.25158335999998 349.26439526400003 205.4 339.5 205.4 C 329.73560473599997 205.4 321.82 197.25158335999998 321.82 187.2 Z"/></g><g transform="translate(-286,-93) scale(1,1)"><path fill="none" stroke="#000000" d="M 321.82 187.2 C 321.82 177.14841664 329.73560473599997 169 339.5 169 C 349.26439526400003 169 357.18 177.14841664 357.18 187.2 C 357.18 197.25158335999998 349.26439526400003 205.4 339.5 205.4 C 329.73560473599997 205.4 321.82 197.25158335999998 321.82 187.2 Z" stroke-miterlimit="10"/></g><g transform="translate(-286,-93) scale(1,1)"><path fill="none" stroke="#000000" d="M 339.5 205.4 L 339.5 240.6" stroke-miterlimit="10"/></g><g transform="translate(-286,-93) scale(1,1)"><path fill="none" stroke="#000000" d="M 320.78 218.6 L 358.22 218.6" stroke-miterlimit="10"/></g><g transform="translate(-286,-93) scale(1,1)"><path fill="none" stroke="#000000" d="M 339.5 240.6 L 313.5 277" stroke-miterlimit="10"/></g><g transform="translate(-286,-93) scale(1,1)"><path fill="none" stroke="#000000" d="M 339.5 240.6 L 365.5 277" stroke-miterlimit="10"/></g><g transform="translate(-286,-93) scale(1,1)"><g><path fill="none" stroke="none"/><text fill="#000000" stroke="none" font-family="Arial" font-size="13px" font-style="normal" font-weight="bold" text-decoration="none" x="313.5" y="297.5">注册用户</text></g></g><g transform="translate(-286,-93) scale(1,1)"><path fill="#C0C0C0" stroke="none" d="M 631 139.5 C 631 128.1781616 653.6096176 119 681.5 119 C 709.3903824 119 732 128.1781616 732 139.5 C 732 150.8218384 709.3903824 160 681.5 160 C 653.6096176 160 631 150.8218384 631 139.5 Z" opacity="0.2"/></g><g transform="translate(-286,-93) scale(1,1)"><path fill="#ffffff" stroke="none" d="M 624 132.5 C 624 121.1781616 646.6096176 112 674.5 112 C 702.3903824 112 725 121.1781616 725 132.5 C 725 143.8218384 702.3903824 153 674.5 153 C 646.6096176 153 624 143.8218384 624 132.5 Z"/></g><g transform="translate(-286,-93) scale(1,1)"><path fill="none" stroke="#000000" d="M 624 132.5 C 624 121.1781616 646.6096176 112 674.5 112 C 702.3903824 112 725 121.1781616 725 132.5 C 725 143.8218384 702.3903824 153 674.5 153 C 646.6096176 153 624 143.8218384 624 132.5 Z" stroke-miterlimit="10"/></g><g transform="translate(-286,-93) scale(1,1)"><g><path fill="none" stroke="none"/><text fill="#000000" stroke="none" font-family="Arial" font-size="13px" font-style="normal" font-weight="bold" text-decoration="none" x="661.5" y="139.5">注册</text></g></g><g transform="translate(-286,-93) scale(1,1)"><path fill="#C0C0C0" stroke="none" d="M 615 202.5 C 615 191.7304464 642.9822 183 677.5 183 C 712.0178 183 740 191.7304464 740 202.5 C 740 213.2695536 712.0178 222 677.5 222 C 642.9822 222 615 213.2695536 615 202.5 Z" opacity="0.2"/></g><g transform="translate(-286,-93) scale(1,1)"><path fill="#ffffff" stroke="none" d="M 608 195.5 C 608 184.7304464 635.9822 176 670.5 176 C 705.0178 176 733 184.7304464 733 195.5 C 733 206.2695536 705.0178 215 670.5 215 C 635.9822 215 608 206.2695536 608 195.5 Z"/></g><g transform="translate(-286,-93) scale(1,1)"><path fill="none" stroke="#000000" d="M 608 195.5 C 608 184.7304464 635.9822 176 670.5 176 C 705.0178 176 733 184.7304464 733 195.5 C 733 206.2695536 705.0178 215 670.5 215 C 635.9822 215 608 206.2695536 608 195.5 Z" stroke-miterlimit="10"/></g><g transform="translate(-286,-93) scale(1,1)"><g><path fill="none" stroke="none"/><text fill="#000000" stroke="none" font-family="Arial" font-size="13px" font-style="normal" font-weight="bold" text-decoration="none" x="657.5" y="202.5">登录</text></g></g><g transform="translate(-286,-93) scale(1,1)"><path fill="#C0C0C0" stroke="none" d="M 599 631 C 599 617.7451648 627.4299152 607 662.5 607 C 697.5700848 607 726 617.7451648 726 631 C 726 644.2548352 697.5700848 655 662.5 655 C 627.4299152 655 599 644.2548352 599 631 Z" opacity="0.2"/></g><g transform="translate(-286,-93) scale(1,1)"><path fill="#ffffff" stroke="none" d="M 592 624 C 592 610.7451648 620.4299152 600 655.5 600 C 690.5700848 600 719 610.7451648 719 624 C 719 637.2548352 690.5700848 648 655.5 648 C 620.4299152 648 592 637.2548352 592 624 Z"/></g><g transform="translate(-286,-93) scale(1,1)"><path fill="none" stroke="#000000" d="M 592 624 C 592 610.7451648 620.4299152 600 655.5 600 C 690.5700848 600 719 610.7451648 719 624 C 719 637.2548352 690.5700848 648 655.5 648 C 620.4299152 648 592 637.2548352 592 624 Z" stroke-miterlimit="10"/></g><g transform="translate(-286,-93) scale(1,1)"><g><path fill="none" stroke="none"/><text fill="#000000" stroke="none" font-family="Arial" font-size="13px" font-style="normal" font-weight="bold" text-decoration="none" x="636" y="631">排行榜</text></g></g><g transform="translate(-286,-93) scale(1,1)"><path fill="#C0C0C0" stroke="none" d="M 607 278.5 C 607 265.5213072 637.220776 255 674.5 255 C 711.779224 255 742 265.5213072 742 278.5 C 742 291.4786928 711.779224 302 674.5 302 C 637.220776 302 607 291.4786928 607 278.5 Z" opacity="0.2"/></g><g transform="translate(-286,-93) scale(1,1)"><path fill="#ffffff" stroke="none" d="M 600 271.5 C 600 258.5213072 630.220776 248 667.5 248 C 704.779224 248 735 258.5213072 735 271.5 C 735 284.4786928 704.779224 295 667.5 295 C 630.220776 295 600 284.4786928 600 271.5 Z"/></g><g transform="translate(-286,-93) scale(1,1)"><path fill="none" stroke="#000000" d="M 600 271.5 C 600 258.5213072 630.220776 248 667.5 248 C 704.779224 248 735 258.5213072 735 271.5 C 735 284.4786928 704.779224 295 667.5 295 C 630.220776 295 600 284.4786928 600 271.5 Z" stroke-miterlimit="10"/></g><g transform="translate(-286,-93) scale(1,1)"><g><path fill="none" stroke="none"/><text fill="#000000" stroke="none" font-family="Arial" font-size="13px" font-style="normal" font-weight="bold" text-decoration="none" x="641.5" y="278.5">管理植物</text></g></g><g transform="translate(-286,-93) scale(1,1)"><path fill="#C0C0C0" stroke="none" d="M 591 390.5 C 591 377.5213072 621.220776 367 658.5 367 C 695.779224 367 726 377.5213072 726 390.5 C 726 403.4786928 695.779224 414 658.5 414 C 621.220776 414 591 403.4786928 591 390.5 Z" opacity="0.2"/></g><g transform="translate(-286,-93) scale(1,1)"><path fill="#ffffff" stroke="none" d="M 584 383.5 C 584 370.5213072 614.220776 360 651.5 360 C 688.779224 360 719 370.5213072 719 383.5 C 719 396.4786928 688.779224 407 651.5 407 C 614.220776 407 584 396.4786928 584 383.5 Z"/></g><g transform="translate(-286,-93) scale(1,1)"><path fill="none" stroke="#000000" d="M 584 383.5 C 584 370.5213072 614.220776 360 651.5 360 C 688.779224 360 719 370.5213072 719 383.5 C 719 396.4786928 688.779224 407 651.5 407 C 614.220776 407 584 396.4786928 584 383.5 Z" stroke-miterlimit="10"/></g><g transform="translate(-286,-93) scale(1,1)"><g><path fill="none" stroke="none"/><text fill="#000000" stroke="none" font-family="Arial" font-size="13px" font-style="normal" font-weight="bold" text-decoration="none" x="625.5" y="390.5">管理相册</text></g></g><g transform="translate(-286,-93) scale(1,1)"><path fill="#C0C0C0" stroke="none" d="M 983 714.5 C 983 703.7304464 1006.7289056 695 1036 695 C 1065.2710944 695 1089 703.7304464 1089 714.5 C 1089 725.2695536 1065.2710944 734 1036 734 C 1006.7289056 734 983 725.2695536 983 714.5 Z" opacity="0.2"/></g><g transform="translate(-286,-93) scale(1,1)"><path fill="#ffffff" stroke="none" d="M 976 707.5 C 976 696.7304464 999.7289056 688 1029 688 C 1058.2710944 688 1082 696.7304464 1082 707.5 C 1082 718.2695536 1058.2710944 727 1029 727 C 999.7289056 727 976 718.2695536 976 707.5 Z"/></g><g transform="translate(-286,-93) scale(1,1)"><path fill="none" stroke="#000000" d="M 976 707.5 C 976 696.7304464 999.7289056 688 1029 688 C 1058.2710944 688 1082 696.7304464 1082 707.5 C 1082 718.2695536 1058.2710944 727 1029 727 C 999.7289056 727 976 718.2695536 976 707.5 Z" stroke-miterlimit="10"/></g><g transform="translate(-286,-93) scale(1,1)"><g><path fill="none" stroke="none"/><text fill="#000000" stroke="none" font-family="Arial" font-size="13px" font-style="normal" font-weight="bold" text-decoration="none" x="996.5" y="714.5">添加排行榜</text></g></g><g transform="translate(-286,-93) scale(1,1)"><path fill="#C0C0C0" stroke="none" d="M 975 672 C 975 662.6111584 998.7289056 655 1028 655 C 1057.2710944 655 1081 662.6111584 1081 672 C 1081 681.3888416 1057.2710944 689 1028 689 C 998.7289056 689 975 681.3888416 975 672 Z" opacity="0.2"/></g><g transform="translate(-286,-93) scale(1,1)"><path fill="#ffffff" stroke="none" d="M 968 665 C 968 655.6111584 991.7289056 648 1021 648 C 1050.2710944 648 1074 655.6111584 1074 665 C 1074 674.3888416 1050.2710944 682 1021 682 C 991.7289056 682 968 674.3888416 968 665 Z"/></g><g transform="translate(-286,-93) scale(1,1)"><path fill="none" stroke="#000000" d="M 968 665 C 968 655.6111584 991.7289056 648 1021 648 C 1050.2710944 648 1074 655.6111584 1074 665 C 1074 674.3888416 1050.2710944 682 1021 682 C 991.7289056 682 968 674.3888416 968 665 Z" stroke-miterlimit="10"/></g><g transform="translate(-286,-93) scale(1,1)"><g><path fill="none" stroke="none"/><text fill="#000000" stroke="none" font-family="Arial" font-size="13px" font-style="normal" font-weight="bold" text-decoration="none" x="988.5" y="672">修改排行榜</text></g></g><g transform="translate(-286,-93) scale(1,1)"><path fill="#C0C0C0" stroke="none" d="M 911 760 C 911 750.6111584 934.7289056 743 964 743 C 993.2710944 743 1017 750.6111584 1017 760 C 1017 769.3888416 993.2710944 777 964 777 C 934.7289056 777 911 769.3888416 911 760 Z" opacity="0.2"/></g><g transform="translate(-286,-93) scale(1,1)"><path fill="#ffffff" stroke="none" d="M 904 753 C 904 743.6111584 927.7289056 736 957 736 C 986.2710944 736 1010 743.6111584 1010 753 C 1010 762.3888416 986.2710944 770 957 770 C 927.7289056 770 904 762.3888416 904 753 Z"/></g><g transform="translate(-286,-93) scale(1,1)"><path fill="none" stroke="#000000" d="M 904 753 C 904 743.6111584 927.7289056 736 957 736 C 986.2710944 736 1010 743.6111584 1010 753 C 1010 762.3888416 986.2710944 770 957 770 C 927.7289056 770 904 762.3888416 904 753 Z" stroke-miterlimit="10"/></g><g transform="translate(-286,-93) scale(1,1)"><g><path fill="none" stroke="none"/><text fill="#000000" stroke="none" font-family="Arial" font-size="13px" font-style="normal" font-weight="bold" text-decoration="none" x="924.5" y="760">删除排行榜</text></g></g><g transform="translate(-286,-93) scale(1,1)"><path fill="#C0C0C0" stroke="none" d="M 967 608 C 967 598.6111584 990.7289056 591 1020 591 C 1049.2710944 591 1073 598.6111584 1073 608 C 1073 617.3888416 1049.2710944 625 1020 625 C 990.7289056 625 967 617.3888416 967 608 Z" opacity="0.2"/></g><g transform="translate(-286,-93) scale(1,1)"><path fill="#ffffff" stroke="none" d="M 960 601 C 960 591.6111584 983.7289056 584 1013 584 C 1042.2710944 584 1066 591.6111584 1066 601 C 1066 610.3888416 1042.2710944 618 1013 618 C 983.7289056 618 960 610.3888416 960 601 Z"/></g><g transform="translate(-286,-93) scale(1,1)"><path fill="none" stroke="#000000" d="M 960 601 C 960 591.6111584 983.7289056 584 1013 584 C 1042.2710944 584 1066 591.6111584 1066 601 C 1066 610.3888416 1042.2710944 618 1013 618 C 983.7289056 618 960 610.3888416 960 601 Z" stroke-miterlimit="10"/></g><g transform="translate(-286,-93) scale(1,1)"><g><path fill="none" stroke="none"/><text fill="#000000" stroke="none" font-family="Arial" font-size="13px" font-style="normal" font-weight="bold" text-decoration="none" x="980.5" y="608">查询排行榜</text></g></g><g transform="translate(-286,-93) scale(1,1)"><path fill="none" stroke="#000000" d="M 720 638 L 975 695" stroke-miterlimit="10" stroke-dasharray="3"/></g><g transform="translate(-286,-93) scale(1,1)"><path fill="none" stroke="#000000" d="M 964.1637921367975 696.8911898755729 L 975 695 L 966.0003707520536 688.6749171231115" stroke-miterlimit="10"/></g><g transform="translate(-286,-93) scale(1,1)"><g><path fill="none" stroke="none"/><text fill="#000000" stroke="none" font-family="Arial" font-size="13px" font-style="normal" font-weight="normal" text-decoration="none" x="825.5" y="642.5">«include»</text></g></g><g transform="translate(-286,-93) scale(1,1)"><path fill="none" stroke="#000000" d="M 720 631 L 967 659" stroke-miterlimit="10" stroke-dasharray="3"/></g><g transform="translate(-286,-93) scale(1,1)"><path fill="none" stroke="#000000" d="M 956.4278450770905 662.0380158468977 L 967 659 L 957.3761559555625 653.6725591689495" stroke-miterlimit="10"/></g><g transform="translate(-286,-93) scale(1,1)"><g><path fill="none" stroke="none"/><text fill="#000000" stroke="none" font-family="Arial" font-size="13px" font-style="normal" font-weight="normal" text-decoration="none" x="818.5" y="621.5">«include»</text></g></g><g transform="translate(-286,-93) scale(1,1)"><path fill="none" stroke="#000000" d="M 714 649 L 915 735" stroke-miterlimit="10" stroke-dasharray="3"/></g><g transform="translate(-286,-93) scale(1,1)"><path fill="none" stroke="#000000" d="M 904.0007390645445 734.8724897111462 L 915 735 L 907.3125113944188 727.1321846145795" stroke-miterlimit="10"/></g><g transform="translate(-286,-93) scale(1,1)"><g><path fill="none" stroke="none"/><text fill="#000000" stroke="none" font-family="Arial" font-size="13px" font-style="normal" font-weight="normal" text-decoration="none" x="797.5" y="670.5">«include»</text></g></g><g transform="translate(-286,-93) scale(1,1)"><path fill="none" stroke="#000000" d="M 720 620 L 959 604" stroke-miterlimit="10" stroke-dasharray="3"/></g><g transform="translate(-286,-93) scale(1,1)"><path fill="none" stroke="#000000" d="M 949.1412013243543 608.8789433972005 L 959 604 L 948.5788426409122 600.4787105632838" stroke-miterlimit="10"/></g><g transform="translate(-286,-93) scale(1,1)"><g><path fill="none" stroke="none"/><text fill="#000000" stroke="none" font-family="Arial" font-size="13px" font-style="normal" font-weight="normal" text-decoration="none" x="809.5" y="588.5">«include»</text></g></g><g transform="translate(-286,-93) scale(1,1)"><path fill="#C0C0C0" stroke="none" d="M 1015 280 C 1015 270.6111584 1037.6096176 263 1065.5 263 C 1093.3903824 263 1116 270.6111584 1116 280 C 1116 289.3888416 1093.3903824 297 1065.5 297 C 1037.6096176 297 1015 289.3888416 1015 280 Z" opacity="0.2"/></g><g transform="translate(-286,-93) scale(1,1)"><path fill="#ffffff" stroke="none" d="M 1008 273 C 1008 263.6111584 1030.6096176 256 1058.5 256 C 1086.3903824 256 1109 263.6111584 1109 273 C 1109 282.3888416 1086.3903824 290 1058.5 290 C 1030.6096176 290 1008 282.3888416 1008 273 Z"/></g><g transform="translate(-286,-93) scale(1,1)"><path fill="none" stroke="#000000" d="M 1008 273 C 1008 263.6111584 1030.6096176 256 1058.5 256 C 1086.3903824 256 1109 263.6111584 1109 273 C 1109 282.3888416 1086.3903824 290 1058.5 290 C 1030.6096176 290 1008 282.3888416 1008 273 Z" stroke-miterlimit="10"/></g><g transform="translate(-286,-93) scale(1,1)"><g><path fill="none" stroke="none"/><text fill="#000000" stroke="none" font-family="Arial" font-size="13px" font-style="normal" font-weight="bold" text-decoration="none" x="1032.5" y="280">删除植物</text></g></g><g transform="translate(-286,-93) scale(1,1)"><path fill="#C0C0C0" stroke="none" d="M 927 320 C 927 310.6111584 949.6096176 303 977.5 303 C 1005.3903824 303 1028 310.6111584 1028 320 C 1028 329.3888416 1005.3903824 337 977.5 337 C 949.6096176 337 927 329.3888416 927 320 Z" opacity="0.2"/></g><g transform="translate(-286,-93) scale(1,1)"><path fill="#ffffff" stroke="none" d="M 920 313 C 920 303.6111584 942.6096176 296 970.5 296 C 998.3903824 296 1021 303.6111584 1021 313 C 1021 322.3888416 998.3903824 330 970.5 330 C 942.6096176 330 920 322.3888416 920 313 Z"/></g><g transform="translate(-286,-93) scale(1,1)"><path fill="none" stroke="#000000" d="M 920 313 C 920 303.6111584 942.6096176 296 970.5 296 C 998.3903824 296 1021 303.6111584 1021 313 C 1021 322.3888416 998.3903824 330 970.5 330 C 942.6096176 330 920 322.3888416 920 313 Z" stroke-miterlimit="10"/></g><g transform="translate(-286,-93) scale(1,1)"><g><path fill="none" stroke="none"/><text fill="#000000" stroke="none" font-family="Arial" font-size="13px" font-style="normal" font-weight="bold" text-decoration="none" x="944.5" y="320">查询植物</text></g></g><g transform="translate(-286,-93) scale(1,1)"><path fill="none" stroke="#000000" d="M 736 271 L 1007 273" stroke-miterlimit="10" stroke-dasharray="3"/></g><g transform="translate(-286,-93) scale(1,1)"><path fill="none" stroke="#000000" d="M 996.8065361828884 277.1344038759218 L 1007 273 L 996.8686675943125 268.715597627969" stroke-miterlimit="10"/></g><g transform="translate(-286,-93) scale(1,1)"><g><path fill="none" stroke="none"/><text fill="#000000" stroke="none" font-family="Arial" font-size="13px" font-style="normal" font-weight="normal" text-decoration="none" x="843.5" y="248.5">«include»</text></g></g><g transform="translate(-286,-93) scale(1,1)"><path fill="none" stroke="#000000" d="M 736 281 L 919 306" stroke-miterlimit="10" stroke-dasharray="3"/></g><g transform="translate(-286,-93) scale(1,1)"><path fill="none" stroke="#000000" d="M 908.3610718197182 308.7952114722871 L 919 306 L 909.5006287522614 300.45365472607074" stroke-miterlimit="10"/></g><g transform="translate(-286,-93) scale(1,1)"><g><path fill="none" stroke="none"/><text fill="#000000" stroke="none" font-family="Arial" font-size="13px" font-style="normal" font-weight="normal" text-decoration="none" x="803.5" y="269.5">«include»</text></g></g><g transform="translate(-286,-93) scale(1,1)"><path fill="#C0C0C0" stroke="none" d="M 975 424 C 975 414.6111584 997.6096176 407 1025.5 407 C 1053.3903824 407 1076 414.6111584 1076 424 C 1076 433.3888416 1053.3903824 441 1025.5 441 C 997.6096176 441 975 433.3888416 975 424 Z" opacity="0.2"/></g><g transform="translate(-286,-93) scale(1,1)"><path fill="#ffffff" stroke="none" d="M 968 417 C 968 407.6111584 990.6096176 400 1018.5 400 C 1046.3903824 400 1069 407.6111584 1069 417 C 1069 426.3888416 1046.3903824 434 1018.5 434 C 990.6096176 434 968 426.3888416 968 417 Z"/></g><g transform="translate(-286,-93) scale(1,1)"><path fill="none" stroke="#000000" d="M 968 417 C 968 407.6111584 990.6096176 400 1018.5 400 C 1046.3903824 400 1069 407.6111584 1069 417 C 1069 426.3888416 1046.3903824 434 1018.5 434 C 990.6096176 434 968 426.3888416 968 417 Z" stroke-miterlimit="10"/></g><g transform="translate(-286,-93) scale(1,1)"><g><path fill="none" stroke="none"/><text fill="#000000" stroke="none" font-family="Arial" font-size="13px" font-style="normal" font-weight="bold" text-decoration="none" x="992.5" y="424">修改相册</text></g></g><g transform="translate(-286,-93) scale(1,1)"><path fill="#C0C0C0" stroke="none" d="M 983 480 C 983 470.6111584 1005.6096176 463 1033.5 463 C 1061.3903824 463 1084 470.6111584 1084 480 C 1084 489.3888416 1061.3903824 497 1033.5 497 C 1005.6096176 497 983 489.3888416 983 480 Z" opacity="0.2"/></g><g transform="translate(-286,-93) scale(1,1)"><path fill="#ffffff" stroke="none" d="M 976 473 C 976 463.6111584 998.6096176 456 1026.5 456 C 1054.3903824 456 1077 463.6111584 1077 473 C 1077 482.3888416 1054.3903824 490 1026.5 490 C 998.6096176 490 976 482.3888416 976 473 Z"/></g><g transform="translate(-286,-93) scale(1,1)"><path fill="none" stroke="#000000" d="M 976 473 C 976 463.6111584 998.6096176 456 1026.5 456 C 1054.3903824 456 1077 463.6111584 1077 473 C 1077 482.3888416 1054.3903824 490 1026.5 490 C 998.6096176 490 976 482.3888416 976 473 Z" stroke-miterlimit="10"/></g><g transform="translate(-286,-93) scale(1,1)"><g><path fill="none" stroke="none"/><text fill="#000000" stroke="none" font-family="Arial" font-size="13px" font-style="normal" font-weight="bold" text-decoration="none" x="1000.5" y="480">删除相册</text></g></g><g transform="translate(-286,-93) scale(1,1)"><path fill="#C0C0C0" stroke="none" d="M 975 552 C 975 542.6111584 997.6096176 535 1025.5 535 C 1053.3903824 535 1076 542.6111584 1076 552 C 1076 561.3888416 1053.3903824 569 1025.5 569 C 997.6096176 569 975 561.3888416 975 552 Z" opacity="0.2"/></g><g transform="translate(-286,-93) scale(1,1)"><path fill="#ffffff" stroke="none" d="M 968 545 C 968 535.6111584 990.6096176 528 1018.5 528 C 1046.3903824 528 1069 535.6111584 1069 545 C 1069 554.3888416 1046.3903824 562 1018.5 562 C 990.6096176 562 968 554.3888416 968 545 Z"/></g><g transform="translate(-286,-93) scale(1,1)"><path fill="none" stroke="#000000" d="M 968 545 C 968 535.6111584 990.6096176 528 1018.5 528 C 1046.3903824 528 1069 535.6111584 1069 545 C 1069 554.3888416 1046.3903824 562 1018.5 562 C 990.6096176 562 968 554.3888416 968 545 Z" stroke-miterlimit="10"/></g><g transform="translate(-286,-93) scale(1,1)"><g><path fill="none" stroke="none"/><text fill="#000000" stroke="none" font-family="Arial" font-size="13px" font-style="normal" font-weight="bold" text-decoration="none" x="992.5" y="552">查询相册</text></g></g><g transform="translate(-286,-93) scale(1,1)"><path fill="none" stroke="#000000" d="M 720 389 L 967 412" stroke-miterlimit="10" stroke-dasharray="3"/></g><g transform="translate(-286,-93) scale(1,1)"><path fill="none" stroke="#000000" d="M 956.4908092351743 415.24913980439493 L 967 412 L 957.271391156698 406.86636873411953" stroke-miterlimit="10"/></g><g transform="translate(-286,-93) scale(1,1)"><g><path fill="none" stroke="none"/><text fill="#000000" stroke="none" font-family="Arial" font-size="13px" font-style="normal" font-weight="normal" text-decoration="none" x="817.5" y="376.5">«include»</text></g></g><g transform="translate(-286,-93) scale(1,1)"><path fill="none" stroke="#000000" d="M 720 400 L 975 461" stroke-miterlimit="10" stroke-dasharray="3"/></g><g transform="translate(-286,-93) scale(1,1)"><path fill="none" stroke="#000000" d="M 964.1368363684311 462.72964618166816 L 975 461 L 966.0955387868676 454.54162787508955" stroke-miterlimit="10"/></g><g transform="translate(-286,-93) scale(1,1)"><g><path fill="none" stroke="none"/><text fill="#000000" stroke="none" font-family="Arial" font-size="13px" font-style="normal" font-weight="normal" text-decoration="none" x="826.5" y="406.5">«include»</text></g></g><g transform="translate(-286,-93) scale(1,1)"><path fill="none" stroke="#000000" d="M 708 408 L 977 527" stroke-miterlimit="10" stroke-dasharray="3"/></g><g transform="translate(-286,-93) scale(1,1)"><path fill="none" stroke="#000000" d="M 966.0031150965694 526.7382321243889 L 977 527 L 969.4091259527977 519.0389302729149" stroke-miterlimit="10"/></g><g transform="translate(-286,-93) scale(1,1)"><g><path fill="none" stroke="none"/><text fill="#000000" stroke="none" font-family="Arial" font-size="13px" font-style="normal" font-weight="normal" text-decoration="none" x="826.5" y="445.5">«include»</text></g></g><g transform="translate(-286,-93) scale(1,1)"><path fill="none" stroke="#000000" d="M 384 221 L 623 148" stroke-miterlimit="10"/></g><g transform="translate(-286,-93) scale(1,1)"><path fill="none" stroke="#000000" d="M 384 230 L 607 203" stroke-miterlimit="10"/></g><g transform="translate(-286,-93) scale(1,1)"><path fill="none" stroke="#000000" d="M 384 290 L 635 599" stroke-miterlimit="10"/></g><g transform="translate(-286,-93) scale(1,1)"><path fill="none" stroke="#000000" d="M 384 256 L 600 359" stroke-miterlimit="10"/></g><g transform="translate(-286,-93) scale(1,1)"><path fill="none" stroke="#000000" d="M 384 240 L 599 264" stroke-miterlimit="10"/></g><g transform="translate(-286,-93) scale(1,1)"><path fill="#ffffff" stroke="none" d="M 315.10581818181817 521.8399999999999 C 315.10581818181817 512.5395239679999 322.44574257338184 505 331.5 505 C 340.55425742661816 505 347.89418181818183 512.5395239679999 347.89418181818183 521.8399999999999 C 347.89418181818183 531.1404760319999 340.55425742661816 538.68 331.5 538.68 C 322.44574257338184 538.68 315.10581818181817 531.1404760319999 315.10581818181817 521.8399999999999 Z"/></g><g transform="translate(-286,-93) scale(1,1)"><path fill="none" stroke="#000000" d="M 315.10581818181817 521.8399999999999 C 315.10581818181817 512.5395239679999 322.44574257338184 505 331.5 505 C 340.55425742661816 505 347.89418181818183 512.5395239679999 347.89418181818183 521.8399999999999 C 347.89418181818183 531.1404760319999 340.55425742661816 538.68 331.5 538.68 C 322.44574257338184 538.68 315.10581818181817 531.1404760319999 315.10581818181817 521.8399999999999 Z" stroke-miterlimit="10"/></g><g transform="translate(-286,-93) scale(1,1)"><path fill="none" stroke="#000000" d="M 331.5 538.68 L 331.5 571.3199999999999" stroke-miterlimit="10"/></g><g transform="translate(-286,-93) scale(1,1)"><path fill="none" stroke="#000000" d="M 314.1414545454545 550.92 L 348.8585454545455 550.92" stroke-miterlimit="10"/></g><g transform="translate(-286,-93) scale(1,1)"><path fill="none" stroke="#000000" d="M 331.5 571.3199999999999 L 307.3909090909091 605" stroke-miterlimit="10"/></g><g transform="translate(-286,-93) scale(1,1)"><path fill="none" stroke="#000000" d="M 331.5 571.3199999999999 L 355.6090909090909 605" stroke-miterlimit="10"/></g><g transform="translate(-286,-93) scale(1,1)"><g><path fill="none" stroke="none"/><text fill="#000000" stroke="none" font-family="Arial" font-size="13px" font-style="normal" font-weight="bold" text-decoration="none" x="318.5" y="625.5">游客</text></g></g><g transform="translate(-286,-93) scale(1,1)"><path fill="#C0C0C0" stroke="none" d="M 607 792 C 607 782.6111584 629.6096176 775 657.5 775 C 685.3903824 775 708 782.6111584 708 792 C 708 801.3888416 685.3903824 809 657.5 809 C 629.6096176 809 607 801.3888416 607 792 Z" opacity="0.2"/></g><g transform="translate(-286,-93) scale(1,1)"><path fill="#ffffff" stroke="none" d="M 600 785 C 600 775.6111584 622.6096176 768 650.5 768 C 678.3903824 768 701 775.6111584 701 785 C 701 794.3888416 678.3903824 802 650.5 802 C 622.6096176 802 600 794.3888416 600 785 Z"/></g><g transform="translate(-286,-93) scale(1,1)"><path fill="none" stroke="#000000" d="M 600 785 C 600 775.6111584 622.6096176 768 650.5 768 C 678.3903824 768 701 775.6111584 701 785 C 701 794.3888416 678.3903824 802 650.5 802 C 622.6096176 802 600 794.3888416 600 785 Z" stroke-miterlimit="10"/></g><g transform="translate(-286,-93) scale(1,1)"><g><path fill="none" stroke="none"/><text fill="#000000" stroke="none" font-family="Arial" font-size="13px" font-style="normal" font-weight="bold" text-decoration="none" x="637.5" y="792">新闻</text></g></g><g transform="translate(-286,-93) scale(1,1)"><path fill="#C0C0C0" stroke="none" d="M 615 520 C 615 510.6111584 637.6096176 503 665.5 503 C 693.3903824 503 716 510.6111584 716 520 C 716 529.3888416 693.3903824 537 665.5 537 C 637.6096176 537 615 529.3888416 615 520 Z" opacity="0.2"/></g><g transform="translate(-286,-93) scale(1,1)"><path fill="#ffffff" stroke="none" d="M 608 513 C 608 503.6111584 630.6096176 496 658.5 496 C 686.3903824 496 709 503.6111584 709 513 C 709 522.3888416 686.3903824 530 658.5 530 C 630.6096176 530 608 522.3888416 608 513 Z"/></g><g transform="translate(-286,-93) scale(1,1)"><path fill="none" stroke="#000000" d="M 608 513 C 608 503.6111584 630.6096176 496 658.5 496 C 686.3903824 496 709 503.6111584 709 513 C 709 522.3888416 686.3903824 530 658.5 530 C 630.6096176 530 608 522.3888416 608 513 Z" stroke-miterlimit="10"/></g><g transform="translate(-286,-93) scale(1,1)"><g><path fill="none" stroke="none"/><text fill="#000000" stroke="none" font-family="Arial" font-size="13px" font-style="normal" font-weight="bold" text-decoration="none" x="645.5" y="520">通知</text></g></g><g transform="translate(-286,-93) scale(1,1)"><path fill="none" stroke="#000000" d="M 368 574 L 591 613" stroke-miterlimit="10"/></g><g transform="translate(-286,-93) scale(1,1)"><path fill="none" stroke="#000000" d="M 368 592 L 624 767" stroke-miterlimit="10"/></g><g transform="translate(-286,-93) scale(1,1)"><path fill="none" stroke="#000000" d="M 384 274 L 637 495" stroke-miterlimit="10"/></g><g transform="translate(-286,-93) scale(1,1)"><path fill="#C0C0C0" stroke="none" d="M 959 232 C 959 222.6111584 981.6096176 215 1009.5 215 C 1037.3903824 215 1060 222.6111584 1060 232 C 1060 241.3888416 1037.3903824 249 1009.5 249 C 981.6096176 249 959 241.3888416 959 232 Z" opacity="0.2"/></g><g transform="translate(-286,-93) scale(1,1)"><path fill="#ffffff" stroke="none" d="M 952 225 C 952 215.6111584 974.6096176 208 1002.5 208 C 1030.3903824 208 1053 215.6111584 1053 225 C 1053 234.3888416 1030.3903824 242 1002.5 242 C 974.6096176 242 952 234.3888416 952 225 Z"/></g><g transform="translate(-286,-93) scale(1,1)"><path fill="none" stroke="#000000" d="M 952 225 C 952 215.6111584 974.6096176 208 1002.5 208 C 1030.3903824 208 1053 215.6111584 1053 225 C 1053 234.3888416 1030.3903824 242 1002.5 242 C 974.6096176 242 952 234.3888416 952 225 Z" stroke-miterlimit="10"/></g><g transform="translate(-286,-93) scale(1,1)"><g><path fill="none" stroke="none"/><text fill="#000000" stroke="none" font-family="Arial" font-size="13px" font-style="normal" font-weight="bold" text-decoration="none" x="976.5" y="232">修改植物</text></g></g><g transform="translate(-286,-93) scale(1,1)"><path fill="#C0C0C0" stroke="none" d="M 927 184 C 927 174.6111584 949.6096176 167 977.5 167 C 1005.3903824 167 1028 174.6111584 1028 184 C 1028 193.3888416 1005.3903824 201 977.5 201 C 949.6096176 201 927 193.3888416 927 184 Z" opacity="0.2"/></g><g transform="translate(-286,-93) scale(1,1)"><path fill="#ffffff" stroke="none" d="M 920 177 C 920 167.6111584 942.6096176 160 970.5 160 C 998.3903824 160 1021 167.6111584 1021 177 C 1021 186.3888416 998.3903824 194 970.5 194 C 942.6096176 194 920 186.3888416 920 177 Z"/></g><g transform="translate(-286,-93) scale(1,1)"><path fill="none" stroke="#000000" d="M 920 177 C 920 167.6111584 942.6096176 160 970.5 160 C 998.3903824 160 1021 167.6111584 1021 177 C 1021 186.3888416 998.3903824 194 970.5 194 C 942.6096176 194 920 186.3888416 920 177 Z" stroke-miterlimit="10"/></g><g transform="translate(-286,-93) scale(1,1)"><g><path fill="none" stroke="none"/><text fill="#000000" stroke="none" font-family="Arial" font-size="13px" font-style="normal" font-weight="bold" text-decoration="none" x="944.5" y="184">添加植物</text></g></g><g transform="translate(-286,-93) scale(1,1)"><path fill="none" stroke="#000000" d="M 736 250 L 919 193" stroke-miterlimit="10" stroke-dasharray="3"/></g><g transform="translate(-286,-93) scale(1,1)"><path fill="none" stroke="#000000" d="M 910.548946028628 200.04128445476812 L 919 193 L 908.0452624424395 192.00314241489937" stroke-miterlimit="10"/></g><g transform="translate(-286,-93) scale(1,1)"><g><path fill="none" stroke="none"/><text fill="#000000" stroke="none" font-family="Arial" font-size="13px" font-style="normal" font-weight="normal" text-decoration="none" x="790.5" y="198.5">«include»</text></g></g><g transform="translate(-286,-93) scale(1,1)"><path fill="none" stroke="#000000" d="M 736 262 L 951 232" stroke-miterlimit="10" stroke-dasharray="3"/></g><g transform="translate(-286,-93) scale(1,1)"><path fill="none" stroke="#000000" d="M 941.5165757211436 237.57356833161623 L 951 232 L 940.353098420859 229.23531434624388" stroke-miterlimit="10"/></g><g transform="translate(-286,-93) scale(1,1)"><g><path fill="none" stroke="none"/><text fill="#000000" stroke="none" font-family="Arial" font-size="13px" font-style="normal" font-weight="normal" text-decoration="none" x="810.5" y="223.5">«include»</text></g></g><g transform="translate(-286,-93) scale(1,1)"><path fill="#C0C0C0" stroke="none" d="M 983 376 C 983 366.6111584 1005.6096176 359 1033.5 359 C 1061.3903824 359 1084 366.6111584 1084 376 C 1084 385.3888416 1061.3903824 393 1033.5 393 C 1005.6096176 393 983 385.3888416 983 376 Z" opacity="0.2"/></g><g transform="translate(-286,-93) scale(1,1)"><path fill="#ffffff" stroke="none" d="M 976 369 C 976 359.6111584 998.6096176 352 1026.5 352 C 1054.3903824 352 1077 359.6111584 1077 369 C 1077 378.3888416 1054.3903824 386 1026.5 386 C 998.6096176 386 976 378.3888416 976 369 Z"/></g><g transform="translate(-286,-93) scale(1,1)"><path fill="none" stroke="#000000" d="M 976 369 C 976 359.6111584 998.6096176 352 1026.5 352 C 1054.3903824 352 1077 359.6111584 1077 369 C 1077 378.3888416 1054.3903824 386 1026.5 386 C 998.6096176 386 976 378.3888416 976 369 Z" stroke-miterlimit="10"/></g><g transform="translate(-286,-93) scale(1,1)"><g><path fill="none" stroke="none"/><text fill="#000000" stroke="none" font-family="Arial" font-size="13px" font-style="normal" font-weight="bold" text-decoration="none" x="1000.5" y="376">添加相册</text></g></g><g transform="translate(-286,-93) scale(1,1)"><path fill="none" stroke="#000000" d="M 720 380 L 975 371" stroke-miterlimit="10" stroke-dasharray="3"/></g><g transform="translate(-286,-93) scale(1,1)"><path fill="none" stroke="#000000" d="M 964.992127694212 375.565357807559 L 975 371 L 964.6951701630603 367.1515610915961" stroke-miterlimit="10"/></g><g transform="translate(-286,-93) scale(1,1)"><g><path fill="none" stroke="none"/><text fill="#000000" stroke="none" font-family="Arial" font-size="13px" font-style="normal" font-weight="normal" text-decoration="none" x="818.5" y="351.5">«include»</text></g></g><g transform="translate(-286,-93) scale(1,1)"><path fill="#C0C0C0" stroke="none" d="M 743 794.5 C 743 783.7304464 765.6096176 775 793.5 775 C 821.3903824 775 844 783.7304464 844 794.5 C 844 805.2695536 821.3903824 814 793.5 814 C 765.6096176 814 743 805.2695536 743 794.5 Z" opacity="0.2"/></g><g transform="translate(-286,-93) scale(1,1)"><path fill="#ffffff" stroke="none" d="M 736 787.5 C 736 776.7304464 758.6096176 768 786.5 768 C 814.3903824 768 837 776.7304464 837 787.5 C 837 798.2695536 814.3903824 807 786.5 807 C 758.6096176 807 736 798.2695536 736 787.5 Z"/></g><g transform="translate(-286,-93) scale(1,1)"><path fill="none" stroke="#000000" d="M 736 787.5 C 736 776.7304464 758.6096176 768 786.5 768 C 814.3903824 768 837 776.7304464 837 787.5 C 837 798.2695536 814.3903824 807 786.5 807 C 758.6096176 807 736 798.2695536 736 787.5 Z" stroke-miterlimit="10"/></g><g transform="translate(-286,-93) scale(1,1)"><g><path fill="none" stroke="none"/><text fill="#000000" stroke="none" font-family="Arial" font-size="13px" font-style="normal" font-weight="bold" text-decoration="none" x="760.5" y="794.5">查询新闻</text></g></g><g transform="translate(-286,-93) scale(1,1)"><path fill="none" stroke="#000000" d="M 702 786 L 735 786" stroke-miterlimit="10" stroke-dasharray="3"/></g><g transform="translate(-286,-93) scale(1,1)"><path fill="none" stroke="#000000" d="M 724.8373251423759 790.209517756016 L 735 786 L 724.8373251423758 781.790482243984" stroke-miterlimit="10"/></g><g transform="translate(-286,-93) scale(1,1)"><g><path fill="none" stroke="none"/><text fill="#000000" stroke="none" font-family="Arial" font-size="13px" font-style="normal" font-weight="normal" text-decoration="none" x="690.5" y="762.5">«include»</text></g></g><g transform="translate(-286,-93) scale(1,1)"><path fill="#C0C0C0" stroke="none" d="M 767 530.5 C 767 519.7304464 789.6096176 511 817.5 511 C 845.3903824 511 868 519.7304464 868 530.5 C 868 541.2695536 845.3903824 550 817.5 550 C 789.6096176 550 767 541.2695536 767 530.5 Z" opacity="0.2"/></g><g transform="translate(-286,-93) scale(1,1)"><path fill="#ffffff" stroke="none" d="M 760 523.5 C 760 512.7304464 782.6096176 504 810.5 504 C 838.3903824 504 861 512.7304464 861 523.5 C 861 534.2695536 838.3903824 543 810.5 543 C 782.6096176 543 760 534.2695536 760 523.5 Z"/></g><g transform="translate(-286,-93) scale(1,1)"><path fill="none" stroke="#000000" d="M 760 523.5 C 760 512.7304464 782.6096176 504 810.5 504 C 838.3903824 504 861 512.7304464 861 523.5 C 861 534.2695536 838.3903824 543 810.5 543 C 782.6096176 543 760 534.2695536 760 523.5 Z" stroke-miterlimit="10"/></g><g transform="translate(-286,-93) scale(1,1)"><g><path fill="none" stroke="none"/><text fill="#000000" stroke="none" font-family="Arial" font-size="13px" font-style="normal" font-weight="bold" text-decoration="none" x="784.5" y="530.5">查询通知</text></g></g><g transform="translate(-286,-93) scale(1,1)"><path fill="none" stroke="#000000" d="M 710 516 L 759 520" stroke-miterlimit="10" stroke-dasharray="3"/></g><g transform="translate(-286,-93) scale(1,1)"><path fill="none" stroke="#000000" d="M 748.5285234903332 523.3687059396001 L 759 520 L 749.2135131372644 514.9775827646936" stroke-miterlimit="10"/></g><g transform="translate(-286,-93) scale(1,1)"><g><path fill="none" stroke="none"/><text fill="#000000" stroke="none" font-family="Arial" font-size="13px" font-style="normal" font-weight="normal" text-decoration="none" x="708.5" y="494.5">«include»</text></g></g></g></svg>